<?xml version="1.0" encoding="UTF-8" standalone="no"?>
<!-- Created with Inkscape (http://www.inkscape.org/) -->

<svg
   width="100"
   height="100"
   version="1.1"
   viewBox="0 0 26.458334 26.458331"
   id="svg13"
   sodipodi:docname="Ifood_logo.svg"
   xml:space="preserve"
   inkscape:version="1.3.2 (091e20e, 2023-11-25, custom)"
   xmlns:inkscape="http://www.inkscape.org/namespaces/inkscape"
   xmlns:sodipodi="http://sodipodi.sourceforge.net/DTD/sodipodi-0.dtd"
   xmlns="http://www.w3.org/2000/svg"
   xmlns:svg="http://www.w3.org/2000/svg"
   xmlns:rdf="http://www.w3.org/1999/02/22-rdf-syntax-ns#"
   xmlns:cc="http://creativecommons.org/ns#"
   xmlns:dc="http://purl.org/dc/elements/1.1/"><sodipodi:namedview
     id="namedview13"
     pagecolor="#505050"
     bordercolor="#eeeeee"
     borderopacity="1"
     inkscape:showpageshadow="0"
     inkscape:pageopacity="0"
     inkscape:pagecheckerboard="0"
     inkscape:deskcolor="#505050"
     showgrid="false"
     inkscape:zoom="4.9214632"
     inkscape:cx="45.108536"
     inkscape:cy="60.551098"
     inkscape:window-width="1858"
     inkscape:window-height="1057"
     inkscape:window-x="-8"
     inkscape:window-y="-8"
     inkscape:window-maximized="1"
     inkscape:current-layer="svg13" /><defs
     id="defs7"><clipPath
       id="clipPath1"><path
         d="M 1,1 H 641.93 V 133.88 H 1 Z"
         id="path1" /></clipPath><clipPath
       id="clip2"><rect
         width="642"
         height="134"
         id="rect1"
         x="0"
         y="0" /></clipPath><g
       clip-path="url(#clip2)"
       id="g1" /><clipPath
       id="clipPath2"><path
         d="M 1,1 H 211.93 V 211.88 H 1 Z"
         id="path2" /></clipPath><clipPath
       id="clip4"><rect
         width="212"
         height="212"
         id="rect2"
         x="0"
         y="0" /></clipPath><g
       clip-path="url(#clip4)"
       id="g2" /><clipPath
       id="clipPath3"><path
         d="M 1,1 H 211.93 V 211.88 H 1 Z"
         id="path3" /></clipPath><clipPath
       id="clip8"><rect
         width="212"
         height="212"
         id="rect3"
         x="0"
         y="0" /></clipPath><g
       clip-path="url(#clip8)"
       id="g3" /><clipPath
       id="clipPath4"><path
         d="M 1,1 H 118.93 V 111.88 H 1 Z"
         id="path4" /></clipPath><clipPath
       id="clip12"><rect
         width="119"
         height="112"
         id="rect4"
         x="0"
         y="0" /></clipPath><g
       clip-path="url(#clip12)"
       id="g4" /><linearGradient
       id="linearGradient2628"
       x2="1"
       gradientTransform="matrix(0,-67.566,67.566,0,-9.7242,182.18)"
       gradientUnits="userSpaceOnUse"><stop
         stop-color="#20b038"
         offset="0"
         id="stop4" /><stop
         stop-color="#60d66a"
         offset="1"
         id="stop5" /></linearGradient><linearGradient
       id="linearGradient2630"
       x2="1"
       gradientTransform="matrix(0,-69.988,69.988,0,-9.724,183.4)"
       gradientUnits="userSpaceOnUse"><stop
         stop-color="#f9f9f9"
         offset="0"
         id="stop6" /><stop
         stop-color="#fff"
         offset="1"
         id="stop7" /></linearGradient></defs><metadata
     id="metadata7"><rdf:RDF><cc:Work
         rdf:about=""><dc:format>image/svg+xml</dc:format><dc:type
           rdf:resource="http://purl.org/dc/dcmitype/StillImage" /></cc:Work></rdf:RDF></metadata><g
     id="g5"
     style="display:inline"
     transform="translate(5.8542862,5.9566805)"><circle
       style="display:inline;fill:#ea1d2c;fill-opacity:1;stroke-width:1.32292;stroke-linecap:round;stroke-linejoin:round;paint-order:markers stroke fill"
       id="circle14"
       cx="7.4777069"
       cy="7.2724857"
       r="10.226756" /><g
       style="display:inline;fill:none"
       id="g16"
       transform="matrix(0.26458333,0,0,0.26458333,1.2382174,2.0723013)"><path
         d="m 10.7806,20.1604 c 8.3346,0 14.1177,-7.5521 14.1177,-13.71235 C 24.8983,1.96181 20.623,0 16.559,0 7.41364,0 2.4375,8.12116 2.4375,13.7133 c 0,4.4862 4.31884,6.4471 8.3431,6.4471 z"
         fill="#ea1d2c"
         id="path14"
         style="fill:#ffffff;fill-opacity:1" /><path
         d="m 33.046,20.1604 c 8.3346,0 14.1177,-7.5521 14.1177,-13.71235 C 47.1637,1.96181 42.8799,0 38.8196,0 29.679,0 24.6953,8.12116 24.6953,13.7133 c 0,4.4862 4.3236,6.4471 8.3469,6.4471"
         fill="#ea1d2c"
         id="path15"
         style="fill:#ffffff;fill-opacity:1" /><path
         d="M 36.8948,34.2758 C 31.7331,38.6357 24.8324,40.8742 17.3322,40.4121 7.87526,39.8357 1.31838,32.5723 0,25.2046 h 0.448933 c 2.127217,4.704 7.306047,9.0472 13.805167,9.7611 6.3456,0.6946 14.1214,-2.1499 18.3882,-6.2101 l -4.7867,-3.5915 14.2143,0.0405 -3.0592,14.9271 z"
         fill="#ea1d2c"
         id="path16"
         style="fill:#ffffff;fill-opacity:1" /></g><g
       style="display:none;fill:none"
       id="g14"
       transform="matrix(0.26458333,0,0,0.26458333,1.2382174,2.0723013)"><path
         d="m 10.7806,20.1604 c 8.3346,0 14.1177,-7.5521 14.1177,-13.71235 C 24.8983,1.96181 20.623,0 16.559,0 7.41364,0 2.4375,8.12116 2.4375,13.7133 c 0,4.4862 4.31884,6.4471 8.3431,6.4471 z"
         fill="#ea1d2c"
         id="path1-8" /><path
         d="m 33.046,20.1604 c 8.3346,0 14.1177,-7.5521 14.1177,-13.71235 C 47.1637,1.96181 42.8799,0 38.8196,0 29.679,0 24.6953,8.12116 24.6953,13.7133 c 0,4.4862 4.3236,6.4471 8.3469,6.4471"
         fill="#ea1d2c"
         id="path2-1" /><path
         d="M 36.8948,34.2758 C 31.7331,38.6357 24.8324,40.8742 17.3322,40.4121 7.87526,39.8357 1.31838,32.5723 0,25.2046 h 0.448933 c 2.127217,4.704 7.306047,9.0472 13.805167,9.7611 6.3456,0.6946 14.1214,-2.1499 18.3882,-6.2101 l -4.7867,-3.5915 14.2143,0.0405 -3.0592,14.9271 z"
         fill="#ea1d2c"
         id="path3-9" /></g></g></svg>
