<?xml version="1.0" encoding="UTF-8" standalone="no"?>
<!-- Created with Inkscape (http://www.inkscape.org/) -->

<svg
   width="500"
   height="500"
   viewBox="0 0 132.29186 132.29214"
   version="1.1"
   id="svg1"
   inkscape:version="1.3.2 (091e20e, 2023-11-25, custom)"
   sodipodi:docname="pao_menu_tresfatias.svg"
   xmlns:inkscape="http://www.inkscape.org/namespaces/inkscape"
   xmlns:sodipodi="http://sodipodi.sourceforge.net/DTD/sodipodi-0.dtd"
   xmlns="http://www.w3.org/2000/svg"
   xmlns:svg="http://www.w3.org/2000/svg">
  <sodipodi:namedview
     id="namedview1"
     pagecolor="#505050"
     bordercolor="#eeeeee"
     borderopacity="1"
     inkscape:showpageshadow="0"
     inkscape:pageopacity="0"
     inkscape:pagecheckerboard="0"
     inkscape:deskcolor="#505050"
     inkscape:document-units="mm"
     inkscape:zoom="1.7674523"
     inkscape:cx="182.18313"
     inkscape:cy="267.61684"
     inkscape:window-width="1858"
     inkscape:window-height="1057"
     inkscape:window-x="-8"
     inkscape:window-y="-8"
     inkscape:window-maximized="1"
     inkscape:current-layer="layer1" />
  <defs
     id="defs1" />
  <g
     inkscape:label="Camada 1"
     inkscape:groupmode="layer"
     id="layer1">
    <rect
       style="fill:#000000;stroke-width:2.823;stroke-linecap:round;stroke-linejoin:round;paint-order:markers stroke fill"
       id="rect1"
       width="113.17137"
       height="12.574596"
       x="9.4768991"
       y="9.1011477"
       ry="6.2872982"
       inkscape:label="texto" />
    <rect
       style="fill:#000000;stroke-width:2.823;stroke-linecap:round;stroke-linejoin:round;paint-order:markers stroke fill"
       id="rect1-8"
       width="113.17137"
       height="12.574596"
       x="9.4768991"
       y="33.445358"
       ry="6.2872982"
       inkscape:label="texto" />
    <rect
       style="fill:#000000;stroke-width:2.823;stroke-linecap:round;stroke-linejoin:round;paint-order:markers stroke fill"
       id="rect1-9"
       width="113.17137"
       height="12.574596"
       x="9.4768991"
       y="110.22388"
       ry="6.2872982"
       inkscape:label="texto" />
    <path
       id="path4"
       style="fill:#000000;fill-opacity:1;stroke-width:6.92533;stroke-linecap:round;stroke-linejoin:round;paint-order:markers stroke fill"
       d="m 63.30383,57.789569 c -5.394847,0.0877 -10.789673,0.43774 -16.184537,1.03508 L 45.627911,79.905008 C 37.816649,67.578749 37.651028,62.125469 39.68357,59.811149 c -1.985267,0.30675 -3.970439,0.63871 -5.955709,1.01544 -8.799635,1.66984 -16.167489,8.94784 -16.167489,20.061829 0,17.25293 45.627117,17.563361 48.501947,17.56585 2.88288,-0.002 48.502481,-0.314279 48.502481,-17.56585 0,-11.113989 -7.36821,-18.390139 -16.1675,-20.061829 -1.95737,-0.37186 -3.91464,-0.69826 -5.87199,-1.00252 l -1.420072,20.080939 c -9.01684,-14.228669 -7.845029,-19.297569 -4.86534,-20.953239 -5.32039,-0.63042 -10.64129,-1.00128 -15.96181,-1.13275 l -1.44746,20.471619 C 60.517949,65.173139 60.864387,59.839949 63.30383,57.789569 Z"
       inkscape:label="pão" />
  </g>
</svg>
